<?xml version="1.0" encoding="UTF-8"?>
<!-- Created with Inkscape (http://www.inkscape.org/) -->
<svg width="100mm" height="100mm" version="1.1" viewBox="0 0 100 100" xmlns="http://www.w3.org/2000/svg" xmlns:xlink="http://www.w3.org/1999/xlink">
 <style>.skin {
      stroke: none;
      fill: #eee;
      fill-opacity: 1;
      stroke-width: 0.352687px;
      stroke-linecap: butt;
      stroke-linejoin: miter;
   }
   .hair {
      stroke-opacity: 1;
      stroke-linejoin: round;
      stroke-linecap: butt;
      stroke-width: 0.865;
      stroke: #555;
      fill: #555;
   }
   .shaved {
      fill: #ccc;
      stroke: none;
   }
   .wrinkle {
      fill: none;
      stroke: #bbb;
      stroke-linejoin: bevel;
      stroke-linecap:round;
      stroke-opacity: 1;
      stroke-miterlimit: 4;
      stroke-dasharray: none
   }
   .wrinkle-severe {
      stroke-width: 0.170;
   }
   .wrinkle-medium {
      stroke-width: 0.150;
   }
   .wrinkle-light {
      stroke-width: 0.100;
   }
   .outline {
      fill: none;
      stroke: #555;
      stroke-width: 0.352687px;
      stroke-linecap: butt;
      stroke-linejoin: miter;
   }
   .eye-whites {
      fill: #fafafa;
      fill-opacity:1;
      stroke:none;
      stroke-width:0.264583px;
      stroke-linecap:butt;
      stroke-linejoin:miter;
      stroke-opacity:1;
   }
   .iris {
      fill:#555;
      fill-opacity:1;
      stroke:none;
      stroke-width:0.264583px;
      stroke-linecap:butt;
      stroke-linejoin:miter;
      stroke-opacity:1;
   }
   .nose {
      fill:none;
      stroke:#ccc;
      stroke-width:0.353;
      stroke-linecap:butt;
      stroke-linejoin:miter;
      stroke-miterlimit:4;
      stroke-dasharray:none;
      stroke-opacity:1;
   }
 </style>
 <g>
  <path class="skin" d="m47.416 16.863 5.5348 0.75683 4.5989 2.5043 3.9651 3.2407 3.2565 3.8327 3.4214 9.0192 0.34743 4.0407-0.35889 1.9647 0.1204 3.2347 2.3749 3.64 4.2574 10.619 1.6886 14.701-3.626 5.2793-12.236 3.4347-9.9683-1.4143-8.9947-3.8385-8.7366-11.903-3.8542-0.07361-5.0477-6.4433-1.112-5.1508 1.6052-1.8928 1.8506 0.32438-2.3067-6.4831-0.41835-7.8905 2.1283-6.2598 4.1953-6.2156 3.2292-3.1466 3.8226-2.6161 4.7385-2.2389z"/>
  <path class="wrinkle wrinkle-severe" d="m53.464 30.381 1.174 0.41259 3.0608-0.10306 2.9579-0.38118 1.6458-0.38155 0.92712-0.08809 1.4247 0.49491 1.4044 0.25689"/>
  <path class="wrinkle wrinkle-medium" d="m53.464 30.381-1.4063-0.3759-1.3258 0.22562"/>
  <path class="wrinkle wrinkle-medium" d="m63.475 32.202-1.2944 0.28377-1.4767 0.05386-2.6056-0.25923-1.385-0.0541-1.9941 0.1406-2.2543 0.24954-2.4748 0.45798-1.8497 0.42461"/>
  <path class="wrinkle wrinkle-light" d="m50.732 30.23-1.9705 0.18231-1.4152 0.75144-0.95791 0.09189-0.45577 0.3705-1.5366 0.06919-1.4316 0.54729"/>
  <path class="wrinkle wrinkle-light" d="m48.141 33.499-2.1607 0.61721-1.9161 0.85989-1.4878 0.90602"/>
  <path class="wrinkle wrinkle-light" d="m46.85 28.421-1.649 0.41663-1.4606 0.74224-1.4359 1.0375"/>
  <path class="wrinkle wrinkle-severe" d="m65.24 28.434-1.7951-0.89497-0.97178 0.12698-1.505-0.22562-1.5625 0.50595-1.3197 0.9135-0.62741 0.05901-1.6811-0.66065-1.2202-0.42706-1.4727 0.11778-0.93951-0.48706"/>
  <path class="wrinkle wrinkle-medium" d="m52.145 27.462-1.4057 0.02515-1.4174 0.26733-2.4724 0.6663"/>
  <path class="wrinkle wrinkle-severe" d="m50.672 37.345 2.0341-0.30484 1.231 0.33781 0.28038-1.0604"/>
  <path class="hair shaved" d="m32.497 52.042 0.24438-7.2398 1.0526-4.2218-1.8648-4.7484-2.0348-5.2401-0.86328-3.1165-3.1257 4.6309-2.1283 6.2598 0.41835 7.8905 2.3067 6.4831 3.1672 0.80677z"/>
  <path class="hair shaved" d="m31.179 24.84 7.532-1.8244 6.833-1.972 4.991-1.3974 4.093-0.19433 2.9216 0.67255-4.5989-2.5043-5.5348-0.75683-5.5248 1.0257-4.7385 2.2389-3.8226 2.6161z"/>
  <path class="hair" d="m29.67 53.547 2.8276-1.5046 2.4169 10.28 14.514 5.5335 1.2293 4.4382 2.381 4.4686 2.384 1.1542-0.29248-3.5716 1.5532-1.8918 4.4382 2.1229 7.9725-5.9345 3.7944 0.56336 2.9486-1.629 0.78586 6.8416-3.626 5.2793-12.236 3.4347-9.9683-1.4143-8.9947-3.8385-8.7366-11.903z"/>
  <path class="hair" d="m59.728 65.294 2.7282 3.5215 4.9876-3.0033 5.2175 0.52509-0.26352-3.6486-6.0944-0.42939z"/>
  <path class="hair" d="m55.744 68.669 2.1499-5.2366 6.3629-3.0612 7.1809-0.67721 3.8247 2.8759-0.32775-2.8533-3.5778-3.9595-3.383 0.7645-4.206-0.55967-2.0929 2.0283-5.7499 2.4223-2.172 4.8872z"/>
  <path class="hair" d="m40.789 46.029 3.8339-4.6254 4.5173-1.074 3.1316 0.44627 1.1347-1.3718-1.7016-1.1132-3.6297-0.23338-3.4074 0.57732-2.8075 2.2011-1.5613 2.9243z"/>
  <path class="hair" d="m68.211 37.74-1.363-2.3868-1.5814 1.3457-1.276-0.70981 1.4912-2.0784 1.7497-0.22882 0.96159 2.5349z"/>
  <path class="eye-whites" d="m44.114 46.855 5.8498-0.56773 2.4311-0.61861 0.25766-1.1727-0.34076-1.5917-1.7687-0.18673-2.8435 0.79284-2.5887 1.5096z"/>
  <path class="eye-whites" d="m68.182 42.223-1.5372-1.1828-2.1042 0.27675-0.51785 1.3961 0.24195 1.1211 2.1986 0.31246 1.7854-0.13169z"/>
  <path class="iris" d="m66.046 41.119 0.19005 1.2441 0.37176 0.92744 0.73886 0.79092 0.51135-0.03772-0.06766-0.68225-0.14504-0.65106-0.3754-0.81796-0.62535-0.85222z"/>
  <path class="iris" d="m49.235 43.083-0.16318 1.2717 0.65962 1.0662 0.95566 0.68302 1.7078-0.43458 0.06029-1.1037-0.56063-1.0225-1.3515-0.82486z"/>
  <path class="outline" d="m47.416 16.863 5.5348 0.75683 4.5989 2.5043 3.9651 3.2407 3.2565 3.8327 3.4214 9.0192 0.34743 4.0407-0.35889 1.9647 0.1204 3.2347 2.3749 3.64 4.2574 10.619 1.6886 14.701-3.626 5.2793-12.236 3.4347-9.9683-1.4143-8.9947-3.8385-8.7366-11.903-3.8542-0.07361-5.0477-6.4433-1.112-5.1508 1.6052-1.8928 1.8506 0.32438-2.3067-6.4831-0.41835-7.8905 2.1283-6.2598 4.1953-6.2156 3.2292-3.1466 3.8226-2.6161 4.7385-2.2389z" style="stroke-width:.353"/>
  <path class="nose" d="m62.103 42.058 1.3324 1.6315 2.4967 2.5027 2.5495 1.375 1.4029 0.67293 0.89859 1.3129 0.24146 1.6498-0.53592 1.6448-1.327 0.66503-0.30833 1.8999"/>
 </g>
</svg>
