<?xml version="1.0" encoding="UTF-8"?>
<!-- Created with Inkscape (http://www.inkscape.org/) -->
<svg width="100mm" height="100mm" version="1.1" viewBox="0 0 100 100" xmlns="http://www.w3.org/2000/svg" xmlns:xlink="http://www.w3.org/1999/xlink">
 <style>.skin {
      stroke: none;
      fill: #fafafa;
      fill-opacity: 1;
      stroke-width: 0.352687px;
      stroke-linecap: butt;
      stroke-linejoin: miter;
   }
   .hair {
      stroke-opacity: 1;
      stroke-linejoin: round;
      stroke-linecap: butt;
      stroke-width: 0.865;
      stroke: #555;
      fill: #555;
   }
   .wrinkle {
      fill: none;
      stroke: #ccc;
      stroke-linejoin: bevel;
      stroke-linecap:round;
      stroke-opacity: 1;
      stroke-miterlimit: 4;
      stroke-dasharray: none
   }
   .wrinkle-severe {
      stroke-width: 0.170;
   }
   .wrinkle-medium {
      stroke-width: 0.150;
   }
   .wrinkle-light {
      stroke-width: 0.100;
   }
   .outline {
      fill: none;
      stroke: #555;
      stroke-width: 0.352687px;
      stroke-linecap: butt;
      stroke-linejoin: miter;
   }
 </style>
 <g>
  <path class="skin" d="m47.416 16.863 5.5348 0.75683 4.5989 2.5043 3.9651 3.2407 3.2565 3.8327 3.4214 9.0192 0.34743 4.0407-0.35889 1.9647 0.1204 3.2347 2.3749 3.64 4.2574 10.619 1.6886 14.701-3.626 5.2793-12.236 3.4347-9.9683-1.4143-8.9947-3.8385-8.7366-11.903-3.8542-0.07361-5.0477-6.4433-1.112-5.1508 1.6052-1.8928 1.8506 0.32438-2.3067-6.4831-0.41835-7.8905 2.1283-6.2598 4.1953-6.2156 3.2292-3.1466 3.8226-2.6161 4.7385-2.2389z"/>
  <path class="wrinkle wrinkle-severe" d="m53.464 30.381 1.174 0.41259 3.0608-0.10306 2.9579-0.38118 1.6458-0.38155 0.92712-0.08809 1.4247 0.49491 1.4044 0.25689"/>
  <path class="wrinkle wrinkle-medium" d="m53.464 30.381-1.4063-0.3759-1.3258 0.22562"/>
  <path class="wrinkle wrinkle-medium" d="m63.475 32.202-1.2944 0.28377-1.4767 0.05386-2.6056-0.25923-1.385-0.0541-1.9941 0.1406-2.2543 0.24954-2.4748 0.45798-1.8497 0.42461"/>
  <path class="wrinkle wrinkle-light" d="m50.732 30.23-1.9705 0.18231-1.4152 0.75144-0.95791 0.09189-0.45577 0.3705-1.5366 0.06919-1.4316 0.54729"/>
  <path class="wrinkle wrinkle-light" d="m48.141 33.499-2.1607 0.61721-1.9161 0.85989-1.4878 0.90602"/>
  <path class="wrinkle wrinkle-light" d="m46.85 28.421-1.649 0.41663-1.4606 0.74224-1.4359 1.0375"/>
  <path class="wrinkle wrinkle-severe" d="m65.24 28.434-1.7951-0.89497-0.97178 0.12698-1.505-0.22562-1.5625 0.50595-1.3197 0.9135-0.62741 0.05901-1.6811-0.66065-1.2202-0.42706-1.4727 0.11778-0.93951-0.48706"/>
  <path class="wrinkle wrinkle-medium" d="m52.145 27.462-1.4057 0.02515-1.4174 0.26733-2.4724 0.6663"/>
  <path class="hair" d="m29.67 53.547 2.8276-1.5046 2.4169 10.28 14.514 5.5335 1.2293 4.4382 2.381 4.4686 2.384 1.1542-0.29248-3.5716 1.5532-1.8918 4.4382 2.1229 7.9725-5.9345 3.7944 0.56336 2.9486-1.629 0.78586 6.8416-3.626 5.2793-12.236 3.4347-9.9683-1.4143-8.9947-3.8385-8.7366-11.903z"/>
  <path class="hair" d="m59.728 65.294 2.7282 3.5215 4.9876-3.0033 5.2175 0.52509-0.26352-3.6486-6.0944-0.42939z"/>
  <path class="hair" d="m55.744 68.669 2.1499-5.2366 6.3629-3.0612 7.1809-0.67721 3.8247 2.8759-0.32775-2.8533-3.5778-3.9595-3.383 0.7645-4.206-0.55967-2.0929 2.0283-5.7499 2.4223-2.172 4.8872z"/>
  <path class="hair" d="m40.789 46.029 4.2443-4.19 3.8635-1.1959 5.273 0.35349 0.79395-1.182-1.2868-1.5357-6.6854-0.30202-2.3238 0.65786-2.8075 2.2011-1.5613 2.9243z"/>
  <path class="hair" d="m68.211 37.74-1.1006-0.68067-1.7372 0.60122-1.3578-0.93544 1.4979-2.3323 1.8592-0.33887 0.82043 2.1628z"/>
  <path class="outline" d="m47.416 16.863 5.5348 0.75683 4.5989 2.5043 3.9651 3.2407 3.2565 3.8327 3.4214 9.0192 0.34743 4.0407-0.35889 1.9647 0.1204 3.2347 2.3749 3.64 4.2574 10.619 1.6886 14.701-3.626 5.2793-12.236 3.4347-9.9683-1.4143-8.9947-3.8385-8.7366-11.903-3.8542-0.07361-5.0477-6.4433-1.112-5.1508 1.6052-1.8928 1.8506 0.32438-2.3067-6.4831-0.41835-7.8905 2.1283-6.2598 4.1953-6.2156 3.2292-3.1466 3.8226-2.6161 4.7385-2.2389z"/>
 </g>
</svg>
